<svg width="1200" height="120" xmlns="http://www.w3.org/2000/svg" viewBox="0 0 1200 120">
  <defs>
    <linearGradient id="skylineGrad" x1="0%" y1="0%" x2="100%" y2="0%">
      <stop offset="0%" style="stop-color:#1a1a1a;stop-opacity:0.8"/>
      <stop offset="50%" style="stop-color:#333;stop-opacity:0.6"/>
      <stop offset="100%" style="stop-color:#1a1a1a;stop-opacity:0.8"/>
    </linearGradient>
  </defs>
  
  <!-- Zurich skyline silhouette -->
  <path d="M0,120 L0,90 L50,85 L80,70 L120,75 L150,60 L180,65 L220,45 L250,50 L280,35 L320,40 L350,55 L380,50 L420,65 L450,60 L480,75 L520,70 L550,85 L580,80 L620,95 L650,90 L680,105 L720,100 L750,115 L780,110 L820,95 L850,100 L880,85 L920,90 L950,75 L980,80 L1020,65 L1050,70 L1080,55 L1120,60 L1150,45 L1200,50 L1200,120 Z" 
        fill="url(#skylineGrad)" 
        opacity="0.6"/>
  
  <!-- Church spires and distinctive buildings -->
  <rect x="200" y="25" width="8" height="40" fill="url(#skylineGrad)" opacity="0.7"/>
  <rect x="320" y="30" width="6" height="35" fill="url(#skylineGrad)" opacity="0.7"/>
  <rect x="480" y="45" width="10" height="30" fill="url(#skylineGrad)" opacity="0.7"/>
  <rect x="720" y="40" width="8" height="35" fill="url(#skylineGrad)" opacity="0.7"/>
  <rect x="920" y="35" width="12" height="40" fill="url(#skylineGrad)" opacity="0.7"/>
  
  <!-- Lake reflection hint -->
  <ellipse cx="600" cy="115" rx="400" ry="3" fill="url(#skylineGrad)" opacity="0.3"/>
</svg>
