<svg width="100" height="25" viewBox="0 0 100 25" fill="none" xmlns="http://www.w3.org/2000/svg">
  <path d="M0 12C3 20 8 4 15 18C22 6 28 22 35 8C42 19 48 3 55 17C62 5 68 21 75 7C82 18 88 2 95 16C98 4 100 14 100 12V25H0V12Z" fill="currentColor"/>
  <path d="M0 10C4 16 9 6 16 14C24 8 30 18 37 10C44 16 50 4 57 15C64 7 70 19 77 9C84 15 90 5 96 13C98 7 100 11 100 10V0H0V10Z" fill="currentColor" opacity="0.8"/>
  <path d="M0 8C2 14 6 2 12 12C19 5 25 15 32 7C39 13 45 1 52 11C59 4 65 16 72 6C79 12 85 0 92 10C96 3 99 9 100 8V0H0V8Z" fill="currentColor" opacity="0.6"/>
</svg>